<svg width="21" height="21" viewBox="0 0 21 21" fill="none" xmlns="http://www.w3.org/2000/svg">
<circle cx="10.7847" cy="10.7847" r="10" fill="white"/>
<path d="M5.68067 10.9047C6.006 10.974 6.26733 11.1367 6.46467 11.3927C6.662 11.6433 6.76067 11.9313 6.76067 12.2567C6.76067 12.726 6.59533 13.0993 6.26467 13.3767C5.93933 13.6487 5.48333 13.7847 4.89667 13.7847H2.28067V8.16867H4.80867C5.37933 8.16867 5.82467 8.29933 6.14467 8.56067C6.47 8.822 6.63267 9.17667 6.63267 9.62467C6.63267 9.95533 6.54467 10.23 6.36867 10.4487C6.198 10.6673 5.96867 10.8193 5.68067 10.9047ZM3.64867 10.4407H4.54467C4.76867 10.4407 4.93933 10.3927 5.05667 10.2967C5.17933 10.1953 5.24067 10.0487 5.24067 9.85667C5.24067 9.66467 5.17933 9.518 5.05667 9.41667C4.93933 9.31533 4.76867 9.26467 4.54467 9.26467H3.64867V10.4407ZM4.65667 12.6807C4.886 12.6807 5.062 12.63 5.18467 12.5287C5.31267 12.422 5.37667 12.27 5.37667 12.0727C5.37667 11.8753 5.31 11.7207 5.17667 11.6087C5.04867 11.4967 4.87 11.4407 4.64067 11.4407H3.64867V12.6807H4.65667ZM8.92211 7.86467V13.7847H7.55411V7.86467H8.92211ZM11.9455 13.8487C11.5081 13.8487 11.1135 13.7553 10.7615 13.5687C10.4148 13.382 10.1401 13.1153 9.93748 12.7687C9.74015 12.422 9.64148 12.0167 9.64148 11.5527C9.64148 11.094 9.74281 10.6913 9.94548 10.3447C10.1481 9.99267 10.4255 9.72333 10.7775 9.53667C11.1295 9.35 11.5241 9.25667 11.9615 9.25667C12.3988 9.25667 12.7935 9.35 13.1455 9.53667C13.4975 9.72333 13.7748 9.99267 13.9775 10.3447C14.1801 10.6913 14.2815 11.094 14.2815 11.5527C14.2815 12.0113 14.1775 12.4167 13.9695 12.7687C13.7668 13.1153 13.4868 13.382 13.1295 13.5687C12.7775 13.7553 12.3828 13.8487 11.9455 13.8487ZM11.9455 12.6647C12.2068 12.6647 12.4281 12.5687 12.6095 12.3767C12.7961 12.1847 12.8895 11.91 12.8895 11.5527C12.8895 11.1953 12.7988 10.9207 12.6175 10.7287C12.4415 10.5367 12.2228 10.4407 11.9615 10.4407C11.6948 10.4407 11.4735 10.5367 11.2975 10.7287C11.1215 10.9153 11.0335 11.19 11.0335 11.5527C11.0335 11.91 11.1188 12.1847 11.2895 12.3767C11.4655 12.5687 11.6841 12.6647 11.9455 12.6647ZM16.7032 9.25667C17.0179 9.25667 17.2926 9.32067 17.5272 9.44867C17.7672 9.57667 17.9512 9.74467 18.0792 9.95267V9.32067H19.4472V13.7767C19.4472 14.1873 19.3646 14.558 19.1992 14.8887C19.0392 15.2247 18.7912 15.4913 18.4552 15.6887C18.1246 15.886 17.7112 15.9847 17.2152 15.9847C16.5539 15.9847 16.0179 15.8273 15.6072 15.5127C15.1966 15.2033 14.9619 14.782 14.9032 14.2487H16.2552C16.2979 14.4193 16.3992 14.5527 16.5592 14.6487C16.7192 14.75 16.9166 14.8007 17.1512 14.8007C17.4339 14.8007 17.6579 14.718 17.8232 14.5527C17.9939 14.3927 18.0792 14.134 18.0792 13.7767V13.1447C17.9459 13.3527 17.7619 13.5233 17.5272 13.6567C17.2926 13.7847 17.0179 13.8487 16.7032 13.8487C16.3352 13.8487 16.0019 13.7553 15.7032 13.5687C15.4046 13.3767 15.1672 13.1073 14.9912 12.7607C14.8206 12.4087 14.7352 12.0033 14.7352 11.5447C14.7352 11.086 14.8206 10.6833 14.9912 10.3367C15.1672 9.99 15.4046 9.72333 15.7032 9.53667C16.0019 9.35 16.3352 9.25667 16.7032 9.25667ZM18.0792 11.5527C18.0792 11.2113 17.9832 10.942 17.7912 10.7447C17.6046 10.5473 17.3752 10.4487 17.1032 10.4487C16.8312 10.4487 16.5992 10.5473 16.4072 10.7447C16.2206 10.9367 16.1272 11.2033 16.1272 11.5447C16.1272 11.886 16.2206 12.158 16.4072 12.3607C16.5992 12.558 16.8312 12.6567 17.1032 12.6567C17.3752 12.6567 17.6046 12.558 17.7912 12.3607C17.9832 12.1633 18.0792 11.894 18.0792 11.5527Z" fill="black"/>
</svg>
