<svg width="42" height="42" viewBox="0 0 42 42" fill="none" xmlns="http://www.w3.org/2000/svg">
<path d="M4.55525 20.8847C2.6592 17.5786 1.7437 14.879 1.19167 12.1424C0.375245 8.09515 2.24362 4.14161 5.33876 1.61895C6.6469 0.552766 8.14646 0.917036 8.92001 2.3048L10.6664 5.43782C12.0506 7.92113 12.7427 9.16279 12.6054 10.4792C12.4681 11.7956 11.5347 12.8677 9.66795 15.012L4.55525 20.8847ZM4.55525 20.8847C8.39301 27.5765 14.4157 33.6025 21.1153 37.4448M21.1153 37.4448C24.4214 39.3408 27.121 40.2563 29.8576 40.8083C33.9048 41.6248 37.8584 39.7564 40.3811 36.6612C41.4472 35.3531 41.083 33.8535 39.6952 33.08L36.5622 31.3336C34.0789 29.9494 32.8372 29.2573 31.5208 29.3946C30.2044 29.5319 29.1323 30.4653 26.988 32.3321L21.1153 37.4448Z" stroke="#2A353D" stroke-width="1.5" stroke-linejoin="round"/>
<path d="M25 10.6637C27.8465 11.8725 30.1276 14.1535 31.3364 17M26.3081 1C33.3825 3.04152 38.9582 8.61704 41 15.6913" stroke="#2A353D" stroke-width="1.5" stroke-linecap="round"/>
</svg>
