<svg width="20" height="20" viewBox="0 0 20 20" fill="none" xmlns="http://www.w3.org/2000/svg">
<g clip-path="url(#clip0_969_19911)">
<path d="M11.7284 3.23787C12.3494 2.56506 12.6599 2.22865 12.9898 2.03243C13.7859 1.55896 14.7662 1.54423 15.5756 1.99359C15.9111 2.17982 16.2311 2.50676 16.8712 3.16062C17.5113 3.81449 17.8313 4.14143 18.0136 4.48409C18.4535 5.31092 18.4391 6.31232 17.9756 7.12558C17.7835 7.46262 17.4542 7.7798 16.7956 8.41416L8.95918 15.9619C7.71106 17.1641 7.08699 17.7651 6.30704 18.0698C5.52709 18.3744 4.66966 18.352 2.9548 18.3071L2.72147 18.301C2.19941 18.2874 1.93838 18.2806 1.78665 18.1084C1.63491 17.9362 1.65563 17.6703 1.69706 17.1385L1.71956 16.8497C1.83617 15.3529 1.89447 14.6046 2.18675 13.9318C2.47903 13.2591 2.98319 12.7129 3.99151 11.6204L11.7284 3.23787Z" stroke="#5D5D5F" stroke-width="1.5" stroke-linejoin="round"/>
<path d="M10.834 3.33331L16.6673 9.16665" stroke="#5D5D5F" stroke-width="1.5" stroke-linejoin="round"/>
<path d="M11.667 18.3333L18.3337 18.3333" stroke="#5D5D5F" stroke-width="1.5" stroke-linecap="round" stroke-linejoin="round"/>
</g>
<defs>
<clipPath id="clip0_969_19911">
<rect width="20" height="20" fill="white"/>
</clipPath>
</defs>
</svg>
