<svg width="22" height="21" viewBox="0 0 22 21" fill="none" xmlns="http://www.w3.org/2000/svg">
<path d="M10.8565 20.7798C5.2222 20.7798 0.632812 16.1931 0.632812 10.5622C0.632812 4.93127 5.2222 0.344593 10.8565 0.344593C16.4907 0.344593 21.0801 4.93127 21.0801 10.5622C21.0801 16.1931 16.4907 20.7798 10.8565 20.7798ZM10.8565 18.7363C15.3857 18.7363 19.0354 15.0887 19.0354 10.5622C19.0354 6.03567 15.3857 2.38811 10.8565 2.38811C6.32726 2.38811 2.67754 6.03567 2.67754 10.5622C2.67754 15.0887 6.32726 18.7363 10.8565 18.7363ZM9.83409 15.671V11.5839H5.74463V9.54043H9.83409V5.45339H11.8788V9.54043H15.9683V11.5839H11.8788V15.671H9.83409Z" fill="#5D5D5F"/>
</svg>
