<svg width="36" height="31" viewBox="0 0 36 31" fill="none" xmlns="http://www.w3.org/2000/svg">
<path d="M12.0322 19.1989H23.6989M12.0322 11.8889H17.8656" stroke="#2A353D" stroke-width="1.5" stroke-linecap="round" stroke-linejoin="round"/>
<path d="M21.4831 28.5418C28.4548 28.1352 34.008 23.1948 34.465 16.9926C34.5544 15.7788 34.5544 14.5219 34.465 13.3081C34.008 7.10587 28.4548 2.16546 21.4831 1.75894C19.1046 1.62025 16.6213 1.62053 14.2477 1.75894C7.27604 2.16546 1.72275 7.10587 1.2658 13.3081C1.17637 14.5219 1.17637 15.7788 1.2658 16.9926C1.43222 19.2515 2.57112 21.343 3.91191 23.1091C4.69041 24.3455 4.17664 25.8887 3.36575 27.2366C2.78108 28.2085 2.48875 28.6945 2.72347 29.0455C2.95819 29.3966 3.4825 29.4078 4.53111 29.4302C6.60484 29.4744 8.0032 28.9587 9.11319 28.2407C9.74274 27.8335 10.0575 27.6299 10.2745 27.6065C10.4914 27.5831 10.9183 27.7374 11.7721 28.0458C12.5394 28.323 13.4303 28.4941 14.2477 28.5418C16.6213 28.6802 19.1046 28.6805 21.4831 28.5418Z" stroke="#2A353D" stroke-width="1.5" stroke-linejoin="round"/>
</svg>
