<svg width="48" height="48" viewBox="0 0 48 48" fill="none" xmlns="http://www.w3.org/2000/svg">
<path d="M4 25C4 22.7909 5.79086 21 8 21C11.3137 21 14 23.6863 14 27V35C14 38.3137 11.3137 41 8 41C5.79086 41 4 39.2091 4 37V25Z" stroke="#2A353D" stroke-width="1.5" stroke-linecap="round" stroke-linejoin="round"/>
<path d="M30.9575 15.6125L30.4249 17.3327C29.9885 18.7422 29.7702 19.447 29.9381 20.0036C30.0738 20.4539 30.3719 20.842 30.778 21.0974C31.28 21.4131 32.0394 21.4131 33.5582 21.4131H34.3662C39.5063 21.4131 42.0764 21.4131 43.2903 22.9346C43.429 23.1085 43.5524 23.2934 43.6592 23.4873C44.593 25.1843 43.5313 27.4703 41.408 32.0422C39.4594 36.2378 38.4851 38.3356 36.6761 39.5703C36.5009 39.6898 36.321 39.8026 36.1366 39.9083C34.2321 41 31.8723 41 27.1528 41H26.1292C20.4114 41 17.5526 41 15.7763 39.2789C14 37.5579 14 34.7879 14 29.2479V27.3007C14 24.3893 14 22.9336 14.5167 21.6012C15.0334 20.2688 16.0227 19.1733 18.0014 16.9822L26.1842 7.92112C26.3895 7.69388 26.4921 7.58023 26.5826 7.5015C27.4271 6.76656 28.7305 6.84929 29.4688 7.68469C29.5479 7.77419 29.6344 7.89982 29.8072 8.15107C30.0777 8.5441 30.2129 8.74061 30.3307 8.93531C31.3857 10.6783 31.7049 12.7487 31.2216 14.7143C31.1676 14.9338 31.0975 15.1602 30.9575 15.6125Z" stroke="#2A353D" stroke-width="1.5" stroke-linecap="round" stroke-linejoin="round"/>
</svg>
