<svg width="24" height="24" viewBox="0 0 24 24" fill="none" xmlns="http://www.w3.org/2000/svg">
<path d="M19 9C19 10.45 18.57 11.78 17.83 12.89C17.2878 13.6987 16.5825 14.3852 15.7593 14.9053C14.9361 15.4254 14.0133 15.7676 13.05 15.91C12.71 15.97 12.36 16 12 16C11.64 16 11.29 15.97 10.95 15.91C9.98681 15.7676 9.06399 15.4254 8.24082 14.9053C7.41764 14.3852 6.71229 13.6987 6.17005 12.89C5.40235 11.7383 4.99504 10.3841 5.00005 9C5.00005 5.13 8.13005 2 12 2C15.87 2 19 5.13 19 9Z" stroke="#5D5D5F" stroke-width="1.5" stroke-linecap="round" stroke-linejoin="round"/>
<path d="M21.2692 18.47L19.6192 18.86C19.2492 18.95 18.9592 19.23 18.8792 19.6L18.5292 21.07C18.4863 21.2504 18.394 21.4154 18.2627 21.5464C18.1314 21.6774 17.9662 21.7693 17.7857 21.8119C17.6052 21.8544 17.4164 21.8459 17.2404 21.7873C17.0644 21.7287 16.9082 21.6223 16.7892 21.48L12.0192 16L7.2492 21.49C7.13022 21.6323 6.97401 21.7387 6.79803 21.7973C6.62205 21.8559 6.43324 21.8644 6.2527 21.8219C6.07216 21.7793 5.90701 21.6874 5.77571 21.5564C5.64441 21.4254 5.55213 21.2604 5.5092 21.08L5.1592 19.61C5.11666 19.4301 5.02491 19.2657 4.89422 19.135C4.76354 19.0043 4.59906 18.9125 4.4192 18.87L2.7692 18.48C2.59633 18.4386 2.43757 18.3519 2.3092 18.229C2.18082 18.106 2.08743 17.9511 2.03859 17.7802C1.98975 17.6092 1.98722 17.4284 2.03126 17.2562C2.0753 17.0839 2.16432 16.9265 2.2892 16.8L6.1892 12.9C6.73145 13.7087 7.4368 14.3952 8.25997 14.9153C9.08315 15.4354 10.006 15.7776 10.9692 15.92C11.3092 15.98 11.6592 16.01 12.0192 16.01C12.3792 16.01 12.7292 15.98 13.0692 15.92C15.0592 15.63 16.7692 14.5 17.8492 12.9L21.7492 16.8C22.2992 17.34 22.0292 18.29 21.2692 18.47ZM12.5992 5.98L13.1892 7.16C13.2692 7.32 13.4792 7.48 13.6692 7.51L14.7392 7.69C15.4192 7.8 15.5792 8.3 15.0892 8.79L14.2592 9.62C14.1192 9.76 14.0392 10.03 14.0892 10.23L14.3292 11.26C14.5192 12.07 14.0892 12.39 13.3692 11.96L12.3692 11.37C12.2676 11.3158 12.1543 11.2875 12.0392 11.2875C11.9241 11.2875 11.8108 11.3158 11.7092 11.37L10.7092 11.96C9.9892 12.38 9.5592 12.07 9.7492 11.26L9.9892 10.23C10.0292 10.04 9.9592 9.76 9.8192 9.62L8.9892 8.79C8.4992 8.3 8.6592 7.81 9.3392 7.69L10.4092 7.51C10.5892 7.48 10.7992 7.32 10.8792 7.16L11.4692 5.98C11.7592 5.34 12.2792 5.34 12.5992 5.98Z" stroke="#5D5D5F" stroke-width="1.5" stroke-linecap="round" stroke-linejoin="round"/>
</svg>
