<svg width="42" height="44" viewBox="0 0 42 44" fill="none" xmlns="http://www.w3.org/2000/svg">
<path d="M33.5 1.16663V5.33329M8.5 1.16663V5.33329" stroke="#2A353D" stroke-width="1.5" stroke-linecap="round" stroke-linejoin="round"/>
<path d="M1.2085 22.5068C1.2085 13.429 1.2085 8.89017 3.81708 6.07009C6.42566 3.25 10.6241 3.25 19.021 3.25H22.9793C31.3762 3.25 35.5747 3.25 38.1832 6.07009C40.7918 8.89017 40.7918 13.429 40.7918 22.5068V23.5766C40.7918 32.6543 40.7918 37.1932 38.1832 40.0132C35.5747 42.8333 31.3762 42.8333 22.9793 42.8333H19.021C10.6241 42.8333 6.42566 42.8333 3.81708 40.0132C1.2085 37.1932 1.2085 32.6543 1.2085 23.5766V22.5068Z" stroke="#2A353D" stroke-width="1.5" stroke-linecap="round" stroke-linejoin="round"/>
<path d="M2.25 13.6666H39.75" stroke="#2A353D" stroke-width="1.5" stroke-linecap="round" stroke-linejoin="round"/>
</svg>
