<svg width="56" height="48" viewBox="0 0 56 48" fill="none" xmlns="http://www.w3.org/2000/svg">
<path d="M47.25 23.9994C47.25 36.84 36.8406 47.2494 24 47.2494C11.1594 47.2494 0.75 36.84 0.75 23.9994C0.75 22.3748 0.917266 21.2987 1.18527 20.6194C1.44002 19.9737 1.75082 19.7586 2.06203 19.6835C2.44209 19.5917 3.00685 19.663 3.82763 19.9813C4.63129 20.293 5.57034 20.7965 6.65171 21.4269C7.18315 21.7368 7.74658 22.076 8.33812 22.4322C10.1181 23.5041 12.1527 24.7292 14.3364 25.7663C17.2588 27.1543 20.5309 28.2498 24 28.2498C27.4691 28.2498 30.7412 27.1543 33.6636 25.7663C35.8473 24.7292 37.8819 23.5041 39.6619 22.4322C40.2534 22.076 40.8169 21.7367 41.3483 21.4269C42.4297 20.7965 43.3687 20.293 44.1724 19.9813C44.9932 19.663 45.5579 19.5917 45.938 19.6835C46.2492 19.7586 46.56 19.9737 46.8147 20.6194C47.0827 21.2987 47.25 22.3748 47.25 23.9994Z" fill="white" stroke="black" stroke-width="1.5"/>
<path d="M17.8227 1C23.074 5.60528 9.11514 8.92196 8.1093 10.3333C4.66887 15.1609 10.0561 19 13.0716 19" stroke="black" stroke-linecap="round"/>
<path d="M30.7246 1C36.4135 5.60528 21.2914 8.92196 20.2017 10.3333C16.4746 15.1609 22.3108 19 25.5776 19" stroke="black" stroke-linecap="round"/>
<path d="M40.117 1C44.0555 5.60528 33.5864 8.92196 32.832 10.3333C30.2517 15.1609 34.2921 19 36.5537 19" stroke="black" stroke-linecap="round"/>
<path d="M52.3803 30.8381C51.4033 31.3547 50.2106 31.7675 48.8731 32.0341C50.0317 31.4858 51.2776 30.8071 52.2422 30.0626C52.7254 29.6896 53.1554 29.287 53.4682 28.8611C53.78 28.4367 54 27.9552 54 27.436C54 26.4301 53.2706 25.6471 52.4705 25.0706C51.6482 24.4782 50.6073 23.9996 49.707 23.6297C49.7011 23.6273 49.6952 23.6249 49.6893 23.6224C50.789 23.7789 51.8966 24.0851 52.8254 24.5409C54.2513 25.2406 55.1251 26.2175 55.1251 27.436C55.1251 28.6605 54.1777 29.8876 52.3803 30.8381Z" fill="#5D5D5F" stroke="black"/>
</svg>
