<svg width="21" height="21" viewBox="0 0 21 21" fill="none" xmlns="http://www.w3.org/2000/svg">
<path d="M5.11182 9.19584V11.2394H15.3355V9.19584H5.11182ZM10.2236 0C4.58019 0 0 4.57748 0 10.2176C0 15.8577 4.58019 20.4352 10.2236 20.4352C15.8671 20.4352 20.4473 15.8577 20.4473 10.2176C20.4473 4.57748 15.8671 0 10.2236 0ZM10.2236 18.3917C5.71502 18.3917 2.04473 14.7236 2.04473 10.2176C2.04473 5.71164 5.71502 2.04352 10.2236 2.04352C14.7323 2.04352 18.4026 5.71164 18.4026 10.2176C18.4026 14.7236 14.7323 18.3917 10.2236 18.3917Z" fill="#5D5D5F"/>
</svg>
