<svg width="42" height="42" viewBox="0 0 42 42" fill="none" xmlns="http://www.w3.org/2000/svg">
<path d="M41 21C41 32.0457 32.0457 41 21 41C9.9543 41 1 32.0457 1 21C1 9.95431 9.9543 1 21 1C32.0457 1 41 9.95431 41 21Z" stroke="#2A353D" stroke-width="1.5"/>
<path d="M25.75 17.2556C25.75 17.6698 26.0858 18.0056 26.5 18.0056C26.9142 18.0056 27.25 17.6698 27.25 17.2556H25.75ZM15.75 24.7453C15.75 24.3311 15.4142 23.9953 15 23.9953C14.5858 23.9953 14.25 24.3311 14.25 24.7453H15.75ZM21.75 11C21.75 10.5858 21.4142 10.25 21 10.25C20.5858 10.25 20.25 10.5858 20.25 11L21.75 11ZM20.25 31C20.25 31.4142 20.5858 31.75 21 31.75C21.4142 31.75 21.75 31.4142 21.75 31H20.25ZM21 19.9624C19.0478 19.9624 17.8556 19.6568 17.1672 19.196C16.5431 18.7782 16.25 18.1755 16.25 17.2556H14.75C14.75 18.563 15.2069 19.6887 16.3328 20.4425C17.3944 21.1532 18.9522 21.4624 21 21.4624V19.9624ZM16.25 17.2556C16.25 16.4383 16.7002 15.635 17.5544 15.0087C18.4081 14.3827 19.6239 13.9727 21 13.9727V12.4727C19.3385 12.4727 17.8043 12.9654 16.6674 13.799C15.531 14.6323 14.75 15.8456 14.75 17.2556H16.25ZM21 13.9727C22.3761 13.9727 23.5919 14.3827 24.4456 15.0087C25.2998 15.635 25.75 16.4383 25.75 17.2556H27.25C27.25 15.8456 26.469 14.6323 25.3326 13.799C24.1957 12.9654 22.6615 12.4727 21 12.4727V13.9727ZM26.25 24.7453C26.25 25.9012 25.7353 26.6744 24.8582 27.198C23.9356 27.7488 22.5893 28.0282 21 28.0282V29.5282C22.7245 29.5282 24.3781 29.2315 25.6271 28.486C26.9215 27.7133 27.75 26.47 27.75 24.7453H26.25ZM21 28.0282C19.4718 28.0282 18.1219 27.6105 17.1757 26.9745C16.2249 26.3354 15.75 25.533 15.75 24.7453H14.25C14.25 26.1849 15.1183 27.399 16.339 28.2195C17.5643 29.0431 19.2145 29.5282 21 29.5282V28.0282ZM21 21.4624C22.9582 21.4624 24.2779 21.7503 25.0921 22.2779C25.838 22.7614 26.25 23.5065 26.25 24.7453H27.75C27.75 23.1035 27.162 21.832 25.9079 21.0192C24.7221 20.2506 23.0418 19.9624 21 19.9624V21.4624ZM21.75 13.2227L21.75 11L20.25 11L20.25 13.2227L21.75 13.2227ZM20.25 28.7782V31H21.75V28.7782H20.25Z" fill="#2A353D"/>
</svg>
