<svg width="22" height="22" viewBox="0 0 22 22" fill="none" xmlns="http://www.w3.org/2000/svg">
<path d="M10.2422 16C10.2422 16.5523 10.6899 17 11.2422 17C11.7945 17 12.2422 16.5523 12.2422 16H10.2422ZM10.2422 9C9.6899 9 9.24219 9.44771 9.24219 10C9.24219 10.5523 9.6899 11 10.2422 11V9ZM11.0957 10.1464L11.8028 9.43934L11.0957 10.1464ZM10.991 6C10.4387 6 9.99102 6.44772 9.99102 7C9.99102 7.55228 10.4387 8 10.991 8V6ZM11 8C11.5523 8 12 7.55228 12 7C12 6.44772 11.5523 6 11 6V8ZM22 11C22 4.92487 17.0751 0 11 0V2C15.9706 2 20 6.02944 20 11H22ZM11 0C4.92487 0 0 4.92487 0 11H2C2 6.02944 6.02944 2 11 2V0ZM0 11C0 17.0751 4.92487 22 11 22V20C6.02944 20 2 15.9706 2 11H0ZM11 22C17.0751 22 22 17.0751 22 11H20C20 15.9706 15.9706 20 11 20V22ZM10.2422 11V16H12.2422V11H10.2422ZM10.2422 11C10.3638 11 10.4531 11.0001 10.5286 11.002C10.6046 11.0039 10.6417 11.0072 10.6576 11.0094C10.6729 11.0114 10.6408 11.009 10.5864 10.9866C10.524 10.9609 10.4526 10.9176 10.3886 10.8536L11.8028 9.43934C11.5129 9.14935 11.1711 9.06044 10.9241 9.02722C10.7058 8.99788 10.4496 9 10.2422 9V11ZM12.2422 11C12.2422 10.7926 12.2443 10.5364 12.215 10.3181C12.1818 10.0711 12.0928 9.72933 11.8028 9.43934L10.3886 10.8536C10.3246 10.7896 10.2813 10.7181 10.2556 10.6558C10.2332 10.6014 10.2307 10.5693 10.2328 10.5846C10.2349 10.6005 10.2383 10.6376 10.2402 10.7136C10.2421 10.789 10.2422 10.8784 10.2422 11H12.2422ZM10.991 8H11V6H10.991V8Z" fill="#2A353D"/>
</svg>
