<svg width="20" height="21" viewBox="0 0 20 21" fill="none" xmlns="http://www.w3.org/2000/svg">
<path d="M5.5527 0.766113C2.60406 0.766113 0.212891 3.25389 0.212891 6.32167V15.2106C0.212891 18.2783 2.60406 20.7661 5.5527 20.7661H14.0964C17.045 20.7661 19.4362 18.2783 19.4362 15.2106V6.32167C19.4362 3.25389 17.045 0.766113 14.0964 0.766113H5.5527ZM16.2323 2.98834C16.8218 2.98834 17.3003 3.48611 17.3003 4.09945C17.3003 4.71278 16.8218 5.21056 16.2323 5.21056C15.6428 5.21056 15.1643 4.71278 15.1643 4.09945C15.1643 3.48611 15.6428 2.98834 16.2323 2.98834ZM9.82454 5.21056C12.7732 5.21056 15.1643 7.69834 15.1643 10.7661C15.1643 13.8339 12.7732 16.3217 9.82454 16.3217C6.8759 16.3217 4.48474 13.8339 4.48474 10.7661C4.48474 7.69834 6.8759 5.21056 9.82454 5.21056ZM9.82454 7.43278C8.97482 7.43278 8.1599 7.78397 7.55905 8.40909C6.95821 9.03421 6.62066 9.88206 6.62066 10.7661C6.62066 11.6502 6.95821 12.498 7.55905 13.1231C8.1599 13.7483 8.97482 14.0994 9.82454 14.0994C10.6743 14.0994 11.4892 13.7483 12.09 13.1231C12.6909 12.498 13.0284 11.6502 13.0284 10.7661C13.0284 9.88206 12.6909 9.03421 12.09 8.40909C11.4892 7.78397 10.6743 7.43278 9.82454 7.43278Z" fill="white"/>
</svg>
