<svg width="22" height="22" viewBox="0 0 22 22" fill="none" xmlns="http://www.w3.org/2000/svg">
<path d="M11 0C4.93359 0 0 4.93359 0 11C0 17.0664 4.93359 22 11 22C17.0664 22 22 17.0664 22 11C22 4.93359 17.0664 0 11 0ZM11 2C15.9648 2 20 6.03906 20 11C20 15.9609 15.9648 20 11 20C6.03516 20 2 15.9609 2 11C2 6.03906 6.03516 2 11 2ZM11 3C8.60547 3 7 4.60547 7 7V8H9V7C9 5.19531 10.3984 5 11 5C11.6016 5 13 5.19531 13 7V8H15V7C15 4.60547 13.3945 3 11 3ZM6 9C5.44922 9 5 9.44922 5 10V16C5 16.5508 5.44922 17 6 17H16C16.5508 17 17 16.5508 17 16V10C17 9.44922 16.5508 9 16 9H6ZM6.5 10C6.77734 10 7 10.2227 7 10.5V15.5C7 15.7773 6.77734 16 6.5 16C6.22266 16 6 15.7773 6 15.5V10.5C6 10.2227 6.22266 10 6.5 10ZM11 10.2188C11.9883 10.2188 12.7812 11.0117 12.7812 12C12.7812 12.6172 12.4766 13.1797 12 13.5V15C12 15.5508 11.5508 16 11 16C10.4492 16 10 15.5508 10 15V13.5C9.52344 13.1797 9.21875 12.6211 9.21875 12C9.21875 11.0117 10.0117 10.2188 11 10.2188Z" fill="#4979D1"/>
</svg>
