<svg width="24" height="24" viewBox="0 0 24 24" fill="none" xmlns="http://www.w3.org/2000/svg">
<path d="M13.3711 10.1278C13.3711 10.542 13.7069 10.8778 14.1211 10.8778C14.5353 10.8778 14.8711 10.542 14.8711 10.1278H13.3711ZM9.36627 13.8726C9.36627 13.4584 9.03049 13.1226 8.61627 13.1226C8.20206 13.1226 7.86627 13.4584 7.86627 13.8726H9.36627ZM12.2384 7C12.2384 6.58579 11.9026 6.25 11.4884 6.25C11.0742 6.25 10.7384 6.58579 10.7384 7L12.2384 7ZM10.7384 17C10.7384 17.4142 11.0742 17.75 11.4884 17.75C11.9026 17.75 12.2384 17.4142 12.2384 17H10.7384ZM11.4884 11.1062C10.5827 11.1062 10.113 10.9553 9.88377 10.795C9.71306 10.6756 9.60561 10.5041 9.60561 10.1278H8.10561C8.10561 10.8652 8.35717 11.5578 9.02417 12.0242C9.6326 12.4497 10.4793 12.6062 11.4884 12.6062V11.1062ZM9.60561 10.1278C9.60561 9.85322 9.74906 9.55295 10.0828 9.29736C10.4172 9.04121 10.9117 8.86133 11.4884 8.86133V7.36133C10.611 7.36133 9.78912 7.63285 9.17069 8.10651C8.55153 8.58074 8.10561 9.2887 8.10561 10.1278H9.60561ZM11.4884 8.86133C12.0651 8.86133 12.5595 9.04121 12.894 9.29736C13.2277 9.55295 13.3711 9.85322 13.3711 10.1278H14.8711C14.8711 9.2887 14.4252 8.58073 13.806 8.10651C13.1876 7.63285 12.3657 7.36133 11.4884 7.36133V8.86133ZM13.6105 13.8726C13.6105 14.324 13.4311 14.5921 13.1224 14.7846C12.7689 15.005 12.2097 15.1391 11.4884 15.1391V16.6391C12.3533 16.6391 13.2301 16.4851 13.9161 16.0574C14.6469 15.6017 15.1105 14.8616 15.1105 13.8726H13.6105ZM11.4884 15.1391C10.8307 15.1391 10.2674 14.9508 9.88844 14.6847C9.50723 14.417 9.36627 14.1186 9.36627 13.8726H7.86627C7.86627 14.7404 8.36825 15.4502 9.02653 15.9123C9.68703 16.376 10.5598 16.6391 11.4884 16.6391V15.1391ZM11.4884 12.6062C12.4004 12.6062 12.9323 12.7493 13.222 12.9453C13.4488 13.0989 13.6105 13.3404 13.6105 13.8726H15.1105C15.1105 12.9646 14.7935 12.1979 14.0629 11.7032C13.3952 11.2512 12.4911 11.1062 11.4884 11.1062V12.6062ZM12.2384 8.11133L12.2384 7L10.7384 7L10.7384 8.11133L12.2384 8.11133ZM10.7384 15.8891V17H12.2384V15.8891H10.7384Z" fill="#5D5D5F"/>
<path d="M24 0L20.4727 3.52734C22.6485 5.69786 24 8.69125 24 12C24 18.6168 18.6168 24 12 24C5.3832 24 0 18.6168 0 12C0 5.3832 5.3832 0 12 0V2.4C6.7068 2.4 2.4 6.7068 2.4 12C2.4 17.2932 6.7068 21.6 12 21.6C17.2932 21.6 21.6 17.2932 21.6 12C21.6 9.35281 20.5194 6.95673 18.7805 5.21953L15.6 8.4V0H24Z" fill="#D2725D"/>
</svg>
