<svg width="48" height="48" viewBox="0 0 48 48" fill="none" xmlns="http://www.w3.org/2000/svg">
<path d="M6.12328 30.3866L6.85376 26.2437C7.71711 21.3473 8.14879 18.899 9.85828 17.4495C11.5678 16 14.0234 16 18.9347 16H29.0653C33.9766 16 36.4322 16 38.1417 17.4495C39.8512 18.899 40.2829 21.3473 41.1462 26.2437L41.8767 30.3866C43.0714 37.1622 43.6688 40.55 41.8293 42.775C39.9899 45 36.5919 45 29.7958 45H18.2042C11.4081 45 8.01007 45 6.17066 42.775C4.33125 40.55 4.92859 37.1622 6.12328 30.3866Z" stroke="#2A353D" stroke-width="1.5"/>
<path d="M15 16L15.3356 11.9724C15.7112 7.46613 19.4781 4 24 4C28.5219 4 32.2888 7.46613 32.6644 11.9724L33 16" stroke="#2A353D" stroke-width="1.5"/>
<path d="M30 22C29.74 24.8262 27.1313 27 24 27C20.8687 27 18.26 24.8262 18 22" stroke="#2A353D" stroke-width="1.5" stroke-linecap="round"/>
</svg>
