<svg width="22" height="21" viewBox="0 0 22 21" fill="none" xmlns="http://www.w3.org/2000/svg">
<path d="M2.75 9C2.75 8.58579 2.41421 8.25 2 8.25C1.58579 8.25 1.25 8.58579 1.25 9H2.75ZM20.75 9C20.75 8.58579 20.4142 8.25 20 8.25C19.5858 8.25 19.25 8.58579 19.25 9H20.75ZM19.1213 19.1213L19.6517 19.6517L19.1213 19.1213ZM2.87868 19.1213L2.34835 19.6517H2.34835L2.87868 19.1213ZM14.4979 16.0609C14.8077 15.7859 14.8359 15.3119 14.5609 15.0021C14.2859 14.6923 13.8119 14.6641 13.5021 14.9391L14.4979 16.0609ZM8.49788 14.9391C8.1881 14.6641 7.71407 14.6923 7.43909 15.0021C7.16412 15.3119 7.19234 15.7859 7.50212 16.0609L8.49788 14.9391ZM1.91199 3.73509L1.19806 3.5053H1.19806L1.91199 3.73509ZM1.22827 5.85933L1.94219 6.08912L1.22827 5.85933ZM20.088 3.73509L19.3741 3.96488V3.96488L20.088 3.73509ZM20.7717 5.85933L21.4857 5.62954V5.62954L20.7717 5.85933ZM8.65635 8.27316C8.36534 7.97841 7.89047 7.97538 7.59572 8.2664C7.30096 8.55742 7.29793 9.03228 7.58895 9.32703L8.65635 8.27316ZM14.4112 8.27261C14.1202 7.97778 13.6454 7.97464 13.3505 8.26559C13.0557 8.55654 13.0526 9.0314 13.3435 9.32623L14.4112 8.27261ZM1.37533 8.07004L1.98333 7.63091L1.98333 7.63091L1.37533 8.07004ZM9.87269 7.18818C9.97662 6.78722 9.73583 6.37792 9.33487 6.27399C8.9339 6.17006 8.52461 6.41085 8.42068 6.81182L9.87269 7.18818ZM15.6267 7.18818C15.7306 6.78722 15.4899 6.37792 15.0889 6.27399C14.6879 6.17006 14.2786 6.41085 14.1747 6.81182L15.6267 7.18818ZM20.6247 8.07004L20.0167 7.63091L20.6247 8.07004ZM20.9735 7.20667L20.2325 7.09103V7.09103L20.9735 7.20667ZM18.9449 1.37752L19.3936 0.776488V0.776487L18.9449 1.37752ZM1.0265 7.20667L0.28547 7.32231L1.0265 7.20667ZM3.05507 1.37752L2.60645 0.776487L2.60645 0.776487L3.05507 1.37752ZM1.25 9V14H2.75V9H1.25ZM8 20.75H14V19.25H8V20.75ZM20.75 14V9H19.25V14H20.75ZM14 20.75C15.393 20.75 16.5132 20.7516 17.3918 20.6335C18.2919 20.5125 19.0497 20.2536 19.6517 19.6517L18.591 18.591C18.3142 18.8678 17.9257 19.0482 17.1919 19.1469C16.4365 19.2484 15.4354 19.25 14 19.25V20.75ZM19.25 14C19.25 15.4354 19.2484 16.4365 19.1469 17.1919C19.0482 17.9257 18.8678 18.3142 18.591 18.591L19.6517 19.6517C20.2536 19.0497 20.5125 18.2919 20.6335 17.3918C20.7516 16.5132 20.75 15.393 20.75 14H19.25ZM1.25 14C1.25 15.393 1.24841 16.5132 1.36652 17.3918C1.48754 18.2919 1.74643 19.0497 2.34835 19.6517L3.40901 18.591C3.13225 18.3142 2.9518 17.9257 2.85315 17.1919C2.75159 16.4365 2.75 15.4354 2.75 14H1.25ZM8 19.25C6.56458 19.25 5.56347 19.2484 4.80812 19.1469C4.07434 19.0482 3.68577 18.8678 3.40901 18.591L2.34835 19.6517C2.95027 20.2536 3.70814 20.5125 4.60825 20.6335C5.48678 20.7516 6.60699 20.75 8 20.75V19.25ZM13.5021 14.9391C12.9817 15.401 12.082 15.75 11 15.75V17.25C12.3715 17.25 13.6501 16.8135 14.4979 16.0609L13.5021 14.9391ZM11 15.75C9.91796 15.75 9.01825 15.401 8.49788 14.9391L7.50212 16.0609C8.34993 16.8135 9.62854 17.25 11 17.25V15.75ZM1.19806 3.5053L0.514335 5.62954L1.94219 6.08912L2.62592 3.96488L1.19806 3.5053ZM19.3741 3.96488L20.0578 6.08912L21.4857 5.62954L20.8019 3.5053L19.3741 3.96488ZM5.57622 1.75H16.4238V0.25H5.57622V1.75ZM10.9993 9.25C10.0804 9.25 9.25175 8.87621 8.65635 8.27316L7.58895 9.32703C8.45574 10.205 9.66463 10.75 10.9993 10.75V9.25ZM16.7547 9.25C15.8355 9.25 15.0066 8.87598 14.4112 8.27261L13.3435 9.32623C14.2104 10.2046 15.4196 10.75 16.7547 10.75V9.25ZM5.2453 9.25C4.01112 9.25 2.67028 8.58203 1.98333 7.63091L0.76733 8.50917C1.75148 9.87179 3.55603 10.75 5.2453 10.75V9.25ZM8.42068 6.81182C8.05796 8.21116 6.77553 9.25 5.2453 9.25V10.75C7.46912 10.75 9.34104 9.2393 9.87269 7.18818L8.42068 6.81182ZM14.1747 6.81182C13.812 8.21116 12.5296 9.25 10.9993 9.25V10.75C13.2231 10.75 15.0951 9.2393 15.6267 7.18818L14.1747 6.81182ZM20.0167 7.63091C19.3297 8.58203 17.9889 9.25 16.7547 9.25V10.75C18.444 10.75 20.2485 9.87179 21.2327 8.50917L20.0167 7.63091ZM20.0578 6.08912C20.2449 6.67039 20.2777 6.80138 20.2325 7.09103L21.7145 7.32231C21.8208 6.6415 21.6685 6.19772 21.4857 5.62954L20.0578 6.08912ZM21.2327 8.50917C21.3174 8.39189 21.4327 8.23648 21.5243 8.03046C21.617 7.82192 21.6717 7.59674 21.7145 7.32231L20.2325 7.09103C20.1996 7.30184 20.1709 7.38229 20.1536 7.42111C20.1353 7.46244 20.114 7.49609 20.0167 7.63091L21.2327 8.50917ZM20.8019 3.5053C20.5947 2.86137 20.4214 2.31957 20.2309 1.89553C20.0333 1.45546 19.7871 1.07024 19.3936 0.776488L18.4963 1.97854C18.6085 2.06231 18.7215 2.19586 18.8627 2.51018C19.0111 2.84054 19.1565 3.28877 19.3741 3.96488L20.8019 3.5053ZM16.4238 1.75C17.1135 1.75 17.5655 1.75121 17.9105 1.792C18.2346 1.83033 18.3863 1.89642 18.4963 1.97854L19.3936 0.776487C18.9978 0.4811 18.5607 0.358429 18.0866 0.302377C17.6333 0.248786 17.0777 0.25 16.4238 0.25V1.75ZM0.514335 5.62954C0.331449 6.19774 0.179227 6.6415 0.28547 7.32231L1.76753 7.09103C1.72233 6.80137 1.7551 6.6704 1.94219 6.08912L0.514335 5.62954ZM1.98333 7.63091C1.88596 7.49609 1.86474 7.46244 1.84636 7.42111C1.82911 7.38229 1.80043 7.30184 1.76753 7.09103L0.28547 7.32231C0.328295 7.59674 0.382998 7.82192 0.475709 8.03046C0.5673 8.23648 0.682629 8.39189 0.76733 8.50917L1.98333 7.63091ZM2.62592 3.96488C2.84354 3.28877 2.98895 2.84054 3.13735 2.51018C3.27854 2.19586 3.39148 2.06231 3.5037 1.97854L2.60645 0.776487C2.21291 1.07024 1.96674 1.45545 1.76906 1.89553C1.57858 2.31957 1.40532 2.86137 1.19806 3.5053L2.62592 3.96488ZM5.57622 0.25C4.9223 0.25 4.36666 0.248786 3.9134 0.302377C3.43932 0.358429 3.00218 0.4811 2.60645 0.776487L3.5037 1.97854C3.61373 1.89642 3.76536 1.83033 4.08952 1.792C4.43449 1.75121 4.88655 1.75 5.57622 1.75V0.25Z" fill="#2A353D"/>
</svg>
