<svg width="44" height="44" viewBox="0 0 44 44" fill="none" xmlns="http://www.w3.org/2000/svg">
<circle cx="3.125" cy="3.125" r="3.125" transform="matrix(1 0 0 -1 30.334 13.6671)" stroke="#2A353D" stroke-width="1.5" stroke-linecap="round" stroke-linejoin="round"/>
<path d="M2.77997 20.2165C0.690086 22.5506 0.645123 26.072 2.56316 28.5493C6.36931 33.4651 10.5352 37.631 15.451 41.4371C17.9282 43.3552 21.4497 43.3102 23.7838 41.2203C30.1209 35.5462 35.9244 29.6164 41.5251 23.0999C42.0788 22.4556 42.4252 21.666 42.5029 20.82C42.8466 17.0791 43.5528 6.30136 40.6259 3.37442C37.6989 0.447482 26.9212 1.15364 23.1803 1.49738C22.3343 1.57512 21.5447 1.92148 20.9004 2.4752C14.3839 8.07591 8.45409 13.8794 2.77997 20.2165Z" stroke="#2A353D" stroke-width="1.5"/>
<path d="M11.584 26.1671L17.834 32.4171" stroke="#2A353D" stroke-width="1.5" stroke-linecap="round" stroke-linejoin="round"/>
</svg>
