<svg width="42" height="42" viewBox="0 0 42 42" fill="none" xmlns="http://www.w3.org/2000/svg">
<path d="M7 8.93103H13.3M21 8.93103H17.5M13.3 8.93103H17.5M13.3 8.93103V7M17.5 8.93103C16.7615 11.5719 15.2151 14.0682 13.45 16.2621M8.95 21C10.3769 19.6879 11.9884 18.0787 13.45 16.2621M13.45 16.2621C12.55 15.2069 11.29 13.4997 10.93 12.7273M13.45 16.2621L16.15 19.069" stroke="#2A353D" stroke-width="1.5" stroke-linecap="round" stroke-linejoin="round"/>
<path d="M11.0446 30.9554C11.1535 34.3957 11.5279 36.5057 12.8159 38.0751C13.1484 38.4802 13.5198 38.8516 13.9249 39.1841C16.1376 41 19.425 41 26 41C32.575 41 35.8624 41 38.0751 39.1841C38.4802 38.8516 38.8516 38.4802 39.1841 38.0751C41 35.8624 41 32.575 41 26C41 19.425 41 16.1376 39.1841 13.9249C38.8516 13.5198 38.4802 13.1484 38.0751 12.8159C36.5125 11.5335 34.4139 11.1567 31 11.0461M11.0446 30.9554C7.60434 30.8465 5.49426 30.4721 3.92485 29.1841C3.51978 28.8516 3.14835 28.4802 2.81592 28.0751C1 25.8624 1 22.575 1 16C1 9.42504 1 6.13755 2.81592 3.92485C3.14835 3.51978 3.51978 3.14835 3.92485 2.81592C6.13755 1 9.42504 1 16 1C22.575 1 25.8624 1 28.0751 2.81592C28.4802 3.14835 28.8516 3.51978 29.1841 3.92485C30.4721 5.49426 30.8465 7.60434 30.9554 11.0446C30.9554 11.0446 30.9554 11.0446 31 11.0461M11.0446 30.9554L31 11.0461" stroke="#2A353D" stroke-width="1.5"/>
<path d="M23 35L24.6667 31M33 35L31.3333 31M24.6667 31L28 23L31.3333 31M24.6667 31H31.3333" stroke="#2A353D" stroke-width="1.5" stroke-linecap="round" stroke-linejoin="round"/>
</svg>
